<mxfile host="65bd71144e">
    <diagram id="iRefk3Gc-7SHnO-hkTFX" name="Page-1">
        <mxGraphModel dx="833" dy="478" grid="1" gridSize="10" guides="1" tooltips="1" connect="1" arrows="1" fold="1" page="1" pageScale="1" pageWidth="827" pageHeight="1169" math="0" shadow="0">
            <root>
                <mxCell id="0"/>
                <mxCell id="1" parent="0"/>
                <mxCell id="8" style="edgeStyle=orthogonalEdgeStyle;html=1;fontSize=13;" edge="1" parent="1">
                    <mxGeometry relative="1" as="geometry">
                        <mxPoint x="10" y="180" as="targetPoint"/>
                        <mxPoint x="10" y="180" as="sourcePoint"/>
                    </mxGeometry>
                </mxCell>
                <mxCell id="71" style="edgeStyle=orthogonalEdgeStyle;curved=1;html=1;exitX=0.5;exitY=1;exitDx=0;exitDy=0;fontSize=13;" edge="1" parent="1" source="5">
                    <mxGeometry relative="1" as="geometry">
                        <mxPoint x="398" y="370" as="targetPoint"/>
                    </mxGeometry>
                </mxCell>
                <mxCell id="5" value="address" style="swimlane;fontSize=18;strokeWidth=1;" vertex="1" parent="1">
                    <mxGeometry x="315" y="140" width="165" height="150" as="geometry"/>
                </mxCell>
                <mxCell id="9" value="id_address" style="text;html=1;align=center;verticalAlign=middle;resizable=0;points=[];autosize=1;strokeColor=none;fillColor=none;fontSize=13;" vertex="1" parent="5">
                    <mxGeometry x="-5" y="30" width="80" height="20" as="geometry"/>
                </mxCell>
                <mxCell id="10" value="city" style="text;html=1;align=center;verticalAlign=middle;resizable=0;points=[];autosize=1;strokeColor=none;fillColor=none;fontSize=13;" vertex="1" parent="5">
                    <mxGeometry x="-5" y="50" width="40" height="20" as="geometry"/>
                </mxCell>
                <mxCell id="11" value="state" style="text;html=1;align=center;verticalAlign=middle;resizable=0;points=[];autosize=1;strokeColor=none;fillColor=none;fontSize=13;" vertex="1" parent="5">
                    <mxGeometry x="1" y="130" width="40" height="20" as="geometry"/>
                </mxCell>
                <mxCell id="12" value="street" style="text;html=1;align=center;verticalAlign=middle;resizable=0;points=[];autosize=1;strokeColor=none;fillColor=none;fontSize=13;" vertex="1" parent="5">
                    <mxGeometry x="-4" y="110" width="50" height="20" as="geometry"/>
                </mxCell>
                <mxCell id="61" value="PK" style="text;html=1;align=center;verticalAlign=middle;resizable=0;points=[];autosize=1;strokeColor=none;fillColor=none;fontSize=13;" vertex="1" parent="5">
                    <mxGeometry x="135" y="30" width="30" height="20" as="geometry"/>
                </mxCell>
                <mxCell id="64" value="varchar(30)" style="text;html=1;align=center;verticalAlign=middle;resizable=0;points=[];autosize=1;strokeColor=none;fillColor=none;fontSize=13;" vertex="1" parent="5">
                    <mxGeometry x="55" y="110" width="80" height="20" as="geometry"/>
                </mxCell>
                <mxCell id="65" value="varchar(2)" style="text;html=1;align=center;verticalAlign=middle;resizable=0;points=[];autosize=1;strokeColor=none;fillColor=none;fontSize=13;" vertex="1" parent="5">
                    <mxGeometry x="55" y="130" width="70" height="20" as="geometry"/>
                </mxCell>
                <mxCell id="62" value="varchar(30)" style="text;html=1;align=center;verticalAlign=middle;resizable=0;points=[];autosize=1;strokeColor=none;fillColor=none;fontSize=13;" vertex="1" parent="5">
                    <mxGeometry x="54" y="50" width="80" height="20" as="geometry"/>
                </mxCell>
                <mxCell id="66" value="N" style="text;html=1;align=center;verticalAlign=middle;resizable=0;points=[];autosize=1;strokeColor=none;fillColor=none;fontSize=13;" vertex="1" parent="5">
                    <mxGeometry x="135" y="110" width="20" height="20" as="geometry"/>
                </mxCell>
                <mxCell id="67" value="N" style="text;html=1;align=center;verticalAlign=middle;resizable=0;points=[];autosize=1;strokeColor=none;fillColor=none;fontSize=13;" vertex="1" parent="5">
                    <mxGeometry x="135" y="130" width="20" height="20" as="geometry"/>
                </mxCell>
                <mxCell id="72" value="comp" style="text;html=1;align=center;verticalAlign=middle;resizable=0;points=[];autosize=1;strokeColor=none;fillColor=none;fontSize=13;" vertex="1" parent="5">
                    <mxGeometry x="-5" y="70" width="50" height="20" as="geometry"/>
                </mxCell>
                <mxCell id="73" value="varchar(30)" style="text;html=1;align=center;verticalAlign=middle;resizable=0;points=[];autosize=1;strokeColor=none;fillColor=none;fontSize=13;" vertex="1" parent="5">
                    <mxGeometry x="54" y="70" width="80" height="20" as="geometry"/>
                </mxCell>
                <mxCell id="75" value="zip_code" style="text;html=1;align=center;verticalAlign=middle;resizable=0;points=[];autosize=1;strokeColor=none;fillColor=none;fontSize=13;" vertex="1" parent="5">
                    <mxGeometry x="-5" y="90" width="70" height="20" as="geometry"/>
                </mxCell>
                <mxCell id="76" value="varchar(30)" style="text;html=1;align=center;verticalAlign=middle;resizable=0;points=[];autosize=1;strokeColor=none;fillColor=none;fontSize=13;" vertex="1" parent="5">
                    <mxGeometry x="55" y="90" width="80" height="20" as="geometry"/>
                </mxCell>
                <mxCell id="77" value="N" style="text;html=1;align=center;verticalAlign=middle;resizable=0;points=[];autosize=1;strokeColor=none;fillColor=none;fontSize=13;" vertex="1" parent="5">
                    <mxGeometry x="134" y="90" width="20" height="20" as="geometry"/>
                </mxCell>
                <mxCell id="78" value="N" style="text;html=1;align=center;verticalAlign=middle;resizable=0;points=[];autosize=1;strokeColor=none;fillColor=none;fontSize=13;" vertex="1" parent="5">
                    <mxGeometry x="135" y="70" width="20" height="20" as="geometry"/>
                </mxCell>
                <mxCell id="31" value="provider" style="swimlane;fontSize=18;strokeWidth=1;startSize=23;" vertex="1" parent="1">
                    <mxGeometry x="297.5" y="380" width="202.5" height="190" as="geometry"/>
                </mxCell>
                <mxCell id="32" value="name" style="text;html=1;align=center;verticalAlign=middle;resizable=0;points=[];autosize=1;strokeColor=none;fillColor=none;fontSize=13;" vertex="1" parent="31">
                    <mxGeometry y="70" width="50" height="20" as="geometry"/>
                </mxCell>
                <mxCell id="33" value="id&amp;nbsp;" style="text;html=1;align=center;verticalAlign=middle;resizable=0;points=[];autosize=1;strokeColor=none;fillColor=none;fontSize=13;" vertex="1" parent="31">
                    <mxGeometry x="2.5" y="30" width="30" height="20" as="geometry"/>
                </mxCell>
                <mxCell id="34" value="id_address" style="text;html=1;align=center;verticalAlign=middle;resizable=0;points=[];autosize=1;strokeColor=none;fillColor=none;fontSize=13;" vertex="1" parent="31">
                    <mxGeometry x="-2.5" y="50" width="80" height="20" as="geometry"/>
                </mxCell>
                <mxCell id="35" value="name_fant&amp;nbsp;" style="text;html=1;align=center;verticalAlign=middle;resizable=0;points=[];autosize=1;strokeColor=none;fillColor=none;fontSize=13;" vertex="1" parent="31">
                    <mxGeometry x="2.5" y="90" width="80" height="20" as="geometry"/>
                </mxCell>
                <mxCell id="37" value="cnpj&amp;nbsp;" style="text;html=1;align=center;verticalAlign=middle;resizable=0;points=[];autosize=1;strokeColor=none;fillColor=none;fontSize=13;" vertex="1" parent="31">
                    <mxGeometry x="2.5" y="110" width="40" height="20" as="geometry"/>
                </mxCell>
                <mxCell id="40" value="number" style="text;html=1;align=center;verticalAlign=middle;resizable=0;points=[];autosize=1;strokeColor=none;fillColor=none;fontSize=13;" vertex="1" parent="31">
                    <mxGeometry y="130" width="60" height="20" as="geometry"/>
                </mxCell>
                <mxCell id="41" value="email&amp;nbsp;" style="text;html=1;align=center;verticalAlign=middle;resizable=0;points=[];autosize=1;strokeColor=none;fillColor=none;fontSize=13;" vertex="1" parent="31">
                    <mxGeometry x="2.5" y="150" width="50" height="20" as="geometry"/>
                </mxCell>
                <mxCell id="46" value="FK" style="text;html=1;align=center;verticalAlign=middle;resizable=0;points=[];autosize=1;strokeColor=none;fillColor=none;fontSize=13;" vertex="1" parent="31">
                    <mxGeometry x="152.5" y="50" width="30" height="20" as="geometry"/>
                </mxCell>
                <mxCell id="43" value="int" style="text;html=1;align=center;verticalAlign=middle;resizable=0;points=[];autosize=1;strokeColor=none;fillColor=none;fontSize=13;" vertex="1" parent="31">
                    <mxGeometry x="101.5" y="30" width="30" height="20" as="geometry"/>
                </mxCell>
                <mxCell id="45" value="int" style="text;html=1;align=center;verticalAlign=middle;resizable=0;points=[];autosize=1;strokeColor=none;fillColor=none;fontSize=13;" vertex="1" parent="31">
                    <mxGeometry x="101.5" y="50" width="30" height="20" as="geometry"/>
                </mxCell>
                <mxCell id="44" value="PK" style="text;html=1;align=center;verticalAlign=middle;resizable=0;points=[];autosize=1;strokeColor=none;fillColor=none;fontSize=13;" vertex="1" parent="31">
                    <mxGeometry x="152.5" y="30" width="30" height="20" as="geometry"/>
                </mxCell>
                <mxCell id="47" value="varchar(50)" style="text;html=1;align=center;verticalAlign=middle;resizable=0;points=[];autosize=1;strokeColor=none;fillColor=none;fontSize=13;" vertex="1" parent="31">
                    <mxGeometry x="77.5" y="70" width="80" height="20" as="geometry"/>
                </mxCell>
                <mxCell id="48" value="N" style="text;html=1;align=center;verticalAlign=middle;resizable=0;points=[];autosize=1;strokeColor=none;fillColor=none;fontSize=13;" vertex="1" parent="31">
                    <mxGeometry x="157.5" y="70" width="20" height="20" as="geometry"/>
                </mxCell>
                <mxCell id="50" value="varchar(80)" style="text;html=1;align=center;verticalAlign=middle;resizable=0;points=[];autosize=1;strokeColor=none;fillColor=none;fontSize=13;" vertex="1" parent="31">
                    <mxGeometry x="77.5" y="90" width="80" height="20" as="geometry"/>
                </mxCell>
                <mxCell id="51" value="varchar(14)" style="text;html=1;align=center;verticalAlign=middle;resizable=0;points=[];autosize=1;strokeColor=none;fillColor=none;fontSize=13;" vertex="1" parent="31">
                    <mxGeometry x="77.5" y="110" width="80" height="20" as="geometry"/>
                </mxCell>
                <mxCell id="52" value="varchar(8)" style="text;html=1;align=center;verticalAlign=middle;resizable=0;points=[];autosize=1;strokeColor=none;fillColor=none;fontSize=13;" vertex="1" parent="31">
                    <mxGeometry x="82.5" y="130" width="70" height="20" as="geometry"/>
                </mxCell>
                <mxCell id="53" value="varchar(50)" style="text;html=1;align=center;verticalAlign=middle;resizable=0;points=[];autosize=1;strokeColor=none;fillColor=none;fontSize=13;" vertex="1" parent="31">
                    <mxGeometry x="76.5" y="150" width="80" height="20" as="geometry"/>
                </mxCell>
                <mxCell id="54" value="N" style="text;html=1;align=center;verticalAlign=middle;resizable=0;points=[];autosize=1;strokeColor=none;fillColor=none;fontSize=13;" vertex="1" parent="31">
                    <mxGeometry x="157.5" y="90" width="20" height="20" as="geometry"/>
                </mxCell>
                <mxCell id="57" value="N" style="text;html=1;align=center;verticalAlign=middle;resizable=0;points=[];autosize=1;strokeColor=none;fillColor=none;fontSize=13;" vertex="1" parent="31">
                    <mxGeometry x="156.5" y="130" width="20" height="20" as="geometry"/>
                </mxCell>
                <mxCell id="56" value="N" style="text;html=1;align=center;verticalAlign=middle;resizable=0;points=[];autosize=1;strokeColor=none;fillColor=none;fontSize=13;" vertex="1" parent="31">
                    <mxGeometry x="157.5" y="110" width="20" height="20" as="geometry"/>
                </mxCell>
                <mxCell id="58" value="N" style="text;html=1;align=center;verticalAlign=middle;resizable=0;points=[];autosize=1;strokeColor=none;fillColor=none;fontSize=13;" vertex="1" parent="31">
                    <mxGeometry x="157.5" y="150" width="20" height="20" as="geometry"/>
                </mxCell>
                <mxCell id="60" value="&lt;font style=&quot;font-size: 13px&quot;&gt;int&lt;/font&gt;" style="text;html=1;align=center;verticalAlign=middle;resizable=0;points=[];autosize=1;strokeColor=none;fillColor=none;fontSize=18;" vertex="1" parent="1">
                    <mxGeometry x="395" y="165" width="30" height="30" as="geometry"/>
                </mxCell>
                <mxCell id="63" value="N" style="text;html=1;align=center;verticalAlign=middle;resizable=0;points=[];autosize=1;strokeColor=none;fillColor=none;fontSize=13;" vertex="1" parent="1">
                    <mxGeometry x="450" y="190" width="20" height="20" as="geometry"/>
                </mxCell>
            </root>
        </mxGraphModel>
    </diagram>
</mxfile>